<?xml version="1.0" standalone="no"?>
<!DOCTYPE svg PUBLIC "-//W3C//DTD SVG 20010904//EN"
 "http://www.w3.org/TR/2001/REC-SVG-20010904/DTD/svg10.dtd">
<svg version="1.0" xmlns="http://www.w3.org/2000/svg"
 width="512.000000pt" height="512.000000pt" viewBox="0 0 512.000000 512.000000"
 preserveAspectRatio="xMidYMid meet">
<metadata>
Created by potrace 1.14, written by Peter Selinger 2001-2017
</metadata>
<g transform="translate(0.000000,512.000000) scale(0.100000,-0.100000)"
fill="#000000" stroke="none">
<path d="M2379 5116 c-2 -2 -35 -6 -74 -10 -38 -3 -97 -10 -130 -16 -33 -6
-76 -13 -95 -16 -53 -8 -227 -52 -300 -76 -466 -149 -909 -452 -1205 -823 -22
-27 -43 -52 -46 -55 -4 -3 -40 -55 -82 -116 -233 -344 -371 -710 -429 -1134
-14 -104 -17 -440 -6 -560 56 -583 327 -1154 743 -1563 265 -261 539 -439 885
-575 147 -58 371 -119 509 -138 20 -3 79 -11 131 -18 89 -13 495 -14 560 -3
14 3 45 8 70 11 603 87 1129 365 1543 815 327 356 568 854 633 1311 2 19 6 44
9 55 19 95 27 458 13 605 -40 398 -175 788 -391 1130 -23 36 -44 67 -47 70 -3
3 -27 35 -52 71 -77 108 -246 294 -365 400 -173 154 -435 322 -648 415 -44 20
-89 39 -100 44 -31 14 -197 71 -219 76 -10 2 -42 10 -70 18 -76 22 -199 46
-311 62 -27 3 -59 9 -70 11 -23 5 -451 13 -456 9z m371 -390 c227 -19 472 -81
670 -168 88 -39 226 -110 268 -139 24 -16 46 -29 49 -29 22 0 258 -195 360
-296 177 -178 298 -345 406 -560 105 -211 171 -411 203 -624 3 -19 7 -46 10
-60 23 -134 22 -424 -3 -590 -8 -52 -16 -107 -18 -121 -12 -82 -90 -337 -132
-429 -128 -282 -262 -478 -463 -680 -254 -256 -549 -437 -891 -546 -84 -27
-272 -70 -340 -78 -196 -24 -466 -25 -599 -2 -14 3 -43 7 -64 11 -71 10 -200
40 -271 62 -353 108 -650 287 -910 548 -259 259 -435 549 -540 885 -27 86 -45
154 -51 190 -3 14 -9 48 -14 75 -22 119 -34 250 -34 380 0 88 12 276 19 309 6
28 14 72 21 121 10 62 61 240 100 345 184 492 579 932 1053 1170 252 127 509
200 792 226 41 3 75 7 76 8 4 4 242 -2 303 -8z"/>
<path d="M1826 3492 c-3 -3 -6 -425 -6 -938 l1 -933 592 3 c646 2 664 4 764
62 155 90 237 309 203 542 -30 208 -127 326 -305 374 -25 7 -45 17 -45 23 0 5
21 19 46 29 99 41 180 151 204 277 14 72 14 225 0 280 -27 106 -92 190 -182
232 -102 48 -179 54 -745 54 -287 1 -524 -1 -527 -5z m841 -420 c68 -38 70
-199 4 -249 -11 -9 -66 -12 -173 -13 l-158 0 0 139 0 138 153 -1 c100 -1 160
-6 174 -14z m40 -712 c45 -16 67 -63 67 -145 1 -81 -17 -119 -65 -139 -19 -8
-85 -12 -197 -12 l-167 1 -2 153 -3 152 169 0 c92 0 181 -5 198 -10z"/>
</g>
</svg>
